<svg height='100px' width='100px'  fill="#000050" xmlns:dc="http://purl.org/dc/elements/1.1/" xmlns:cc="http://creativecommons.org/ns#" xmlns:rdf="http://www.w3.org/1999/02/22-rdf-syntax-ns#" xmlns:svg="http://www.w3.org/2000/svg" xmlns="http://www.w3.org/2000/svg" xmlns:sodipodi="http://sodipodi.sourceforge.net/DTD/sodipodi-0.dtd" xmlns:inkscape="http://www.inkscape.org/namespaces/inkscape" version="1.1" x="0px" y="0px" viewBox="0 0 100 100"><g transform="translate(0,-952.36218)"><path style="text-indent:0;text-transform:none;direction:ltr;block-progression:tb;baseline-shift:baseline;color:#000000;enable-background:accumulate;" d="m 26.157258,959.36213 c -0.65697,0.075 -1.0826,0.9284 -0.74792,1.5004 l 5.10792,8.7667 c -2.67696,0.3801 -4.8013,1.1521 -6.45076,2.3444 -2.4136,1.7444 -3.71527,4.33185 -4.36284,7.34535 -0.28984,1.3488 -0.4413,2.811 -0.52977,4.3447 l -12.5898996,-7.189 c -0.20391,-0.1217 -0.45202,-0.167 -0.68558,-0.125 -0.82445,0.126 -1.05074,1.4878 -0.31164,1.8754 l 13.5247896,7.7205 c -0.0588,4.8272 0.40512,10.3679 0.40512,16.41022 -2.89818,0 -5.79636,0 -8.69454,0 -0.52215,0.074 -0.9148396,0.6015 -0.8414096,1.1253 0.0734,0.5235 0.5997296,0.9486 1.1218696,0.8751 l 8.44521,0 c 0.12961,5.4009 0.78732,10.4227 2.21258,14.7848 l -16.1736596,9.3772 c -0.50985,0.2277 -0.74811,0.9228 -0.46744,1.4066 0.28066,0.4837 1.01534,0.6447 1.46466,0.3126 l 15.8620296,-9.1898 c 0.67338,1.6945 1.48156,3.27 2.43072,4.72 1.94511,2.9715 4.50948,5.3513 7.75961,7.0016 l -6.45076,11.0965 c -0.26107,0.4581 -0.0829,1.1134 0.37396,1.3753 0.45687,0.2617 1.1101,0.083 1.37118,-0.3751 l 6.54425,-11.284 c 2.91199,1.1491 6.29231,1.7817 10.19034,1.7817 1.78684,0 3.55865,-0.1917 5.32889,-0.5314 l 0,8.5333 c -0.007,0.5284 0.47032,1.0002 0.99722,1.0002 0.5269,0 1.00467,-0.4717 0.99722,-1.0002 l 0,-8.9708 c 4.40232,-1.147 8.67118,-3.2784 12.55873,-6.064 l 7.54147,12.5655 c 0.22186,0.529 0.94527,0.768 1.43351,0.4689 0.48824,-0.2993 0.61743,-1.061 0.2493,-1.5004 l -7.63496,-12.7218 c 1.66479,-1.3071 3.25252,-2.7231 4.73679,-4.251 1.2706,-1.3079 2.47228,-2.6863 3.58376,-4.126 l 11.00058,5.5014 c 0.47105,0.3108 1.1849,0.1013 1.4335,-0.4064 0.24862,-0.5076 -0.0277,-1.1915 -0.56093,-1.3753 l -10.68895,-5.3451 c 2.80374,-3.9712 4.93249,-8.3191 6.13913,-12.7843 l 3.11631,0 c 0.52684,0.01 0.99722,-0.4718 0.99722,-1.0003 0,-0.5284 -0.47038,-1.0076 -0.99722,-1.0001 l -2.6177,0 c 0.40826,-1.9919 0.62326,-4.00682 0.62326,-6.00152 0,-3.7114 -1.15768,-7.0131 -3.11631,-9.9086 l 14.615501,-8.2206 c 0.44664,-0.1893 0.69814,-0.7528 0.56094,-1.2191 -0.33021,-0.6724 -0.83329,-0.7199 -1.55817,-0.5317 l -14.833641,8.3456 c -0.24412,-0.2961 -0.4869,-0.5889 -0.74791,-0.8752 -2.49099,-2.7322 -5.72251,-5.0283 -9.3801,-6.9391 l 7.35449,-13.15925 c 0.37081,-0.6351 -0.23657,-1.5783 -0.96605,-1.5004 -0.38483,-0.01 -0.58164,0.365 -0.77909,0.5313 l -7.38566,13.25305 c -0.37052,-0.1746 -0.74424,-0.364 -1.12187,-0.5313 -4.23001,-1.87355 -8.88461,-3.29895 -13.55595,-4.31345 l 0,-9.9398 c 0.004,-0.5681 -0.55991,-1.0713 -1.12187,-1.0003 -0.4793,0.061 -0.87631,0.5157 -0.87257,1.0003 l 0,9.5022 c -5.37877,-1.0332 -10.72069,-1.5004 -15.39458,-1.5004 -0.67007,0 -1.31385,0.027 -1.93211,0.062 l -5.51304,-9.517 c -0.2699,-0.4367 -0.68854,-0.4185 -0.99716,-0.5304 z m 8.44237,11.9864 c 9.03209,0 20.77599,1.9499 30.13473,6.09495 4.67936,2.0727 8.75205,4.696 11.62384,7.8456 2.87179,3.15 4.54981,6.7734 4.54981,11.0652 0,8.76822 -4.59932,18.09202 -11.46802,25.16232 -6.8687,7.0702 -15.95941,11.8466 -24.77467,11.8466 -8.92367,0 -14.55978,-3.2561 -18.13693,-8.7209 -3.57716,-5.4648 -5.01727,-13.2784 -5.01727,-22.2865 0,-9.19312 -1.03992,-17.21132 0.12466,-22.63042 0.58228,-2.7098 1.66641,-4.7182 3.61492,-6.12645 1.9485,-1.4085 4.88709,-2.2504 9.34893,-2.2504 z m 3.42794,10.03345 c -4.94493,0 -8.97497,4.0423 -8.97497,9.0021 0,4.9599 4.03004,9.0021 8.97497,9.0021 4.94494,0 8.97498,-4.0422 8.97498,-9.0021 0,-4.9598 -4.03004,-9.0021 -8.97498,-9.0021 z m 0,2.0005 c 3.86706,0 6.98054,3.1228 6.98054,7.0016 0,3.8787 -3.11348,7.0017 -6.98054,7.0017 -3.86705,0 -6.98053,-3.123 -6.98053,-7.0017 0,-3.8788 3.11348,-7.0016 6.98053,-7.0016 z m 28.91937,3.9697 c -3.29268,0 -5.98332,2.7299 -5.98332,6.0327 0,3.3025 2.69064,5.9701 5.98332,5.9701 3.29268,0 5.98332,-2.6676 5.98332,-5.9701 0,-3.3028 -2.69064,-6.0327 -5.98332,-6.0327 z m 0,2.0005 c 2.21481,0 3.98888,1.8106 3.98888,4.0322 0,2.2214 -1.77407,3.9697 -3.98888,3.9697 -2.2148,0 -3.98888,-1.7483 -3.98888,-3.9697 0,-2.2216 1.77408,-4.0322 3.98888,-4.0322 z m -27.92215,22.00532 c -3.29268,0 -5.98331,2.7299 -5.98331,6.0326 0,3.3026 2.69063,5.9702 5.98331,5.9702 3.29268,0 5.98332,-2.6676 5.98332,-5.9702 0,-3.3027 -2.69064,-6.0326 -5.98332,-6.0326 z m 0,2.0004 c 2.21481,0 3.98888,1.8107 3.98888,4.0322 0,2.2215 -1.77407,3.9697 -3.98888,3.9697 -2.2148,0 -3.98888,-1.7482 -3.98888,-3.9697 0,-2.2215 1.77408,-4.0322 3.98888,-4.0322 z" fill="#000050" fill-opacity="1" stroke="none" marker="none" visibility="visible" display="inline" overflow="visible"></path></g></svg>